<?xml version="1.0" standalone="no"?>
<!DOCTYPE svg PUBLIC "-//W3C//DTD SVG 20010904//EN"
 "http://www.w3.org/TR/2001/REC-SVG-20010904/DTD/svg10.dtd">
<svg version="1.0" xmlns="http://www.w3.org/2000/svg"
 width="1067.000000pt" height="1067.000000pt" viewBox="0 0 1067.000000 1067.000000"
 preserveAspectRatio="xMidYMid meet">

<g transform="translate(0.000000,1067.000000) scale(0.100000,-0.100000)"
fill="#000000" stroke="none">
<path d="M1765 10659 c-332 -42 -662 -169 -922 -356 -469 -337 -763 -835 -833
-1413 -14 -117 -14 -6993 0 -7110 101 -836 685 -1510 1487 -1716 268 -69 -2
-64 3836 -64 2308 0 3501 3 3557 10 425 52 803 221 1112 497 371 333 597 770
658 1273 14 117 14 6993 0 7110 -52 425 -221 803 -497 1112 -333 371 -770 597
-1273 658 -106 13 -7022 12 -7125 -1z m4039 -1818 c328 -68 563 -204 686 -397
60 -96 85 -236 66 -370 l-8 -52 66 -43 c73 -48 116 -103 123 -159 5 -35 3 -38
-28 -49 -19 -7 -71 -15 -116 -18 l-83 -6 0 -28 c0 -16 11 -57 24 -92 31 -84
56 -205 56 -277 0 -61 9 -76 50 -82 18 -2 26 -10 28 -29 3 -24 -1 -27 -39 -32
-41 -5 -89 -32 -96 -54 -6 -16 30 -22 160 -30 114 -6 117 -7 117 -30 0 -23 -1
-23 -124 -23 -119 0 -126 -1 -153 -25 l-28 -24 93 -1 c91 0 92 0 92 -24 0 -23
-4 -25 -77 -30 -149 -12 -182 -17 -193 -31 -9 -10 17 -14 147 -19 229 -9 243
-12 243 -42 l0 -25 -152 8 c-225 12 -406 9 -453 -8 -31 -11 -42 -21 -50 -47
-8 -29 -12 -32 -41 -26 -19 3 -73 -4 -135 -20 -204 -49 -284 -59 -479 -59
-197 -1 -261 7 -490 55 -132 29 -165 32 -377 36 l-233 4 0 23 c0 28 14 31 195
42 116 7 118 7 60 15 -33 4 -117 10 -187 14 -125 6 -128 7 -128 29 0 30 12 34
146 42 63 3 114 9 114 12 0 13 -56 39 -108 50 -29 6 -107 11 -172 11 l-120 0
0 33 0 34 128 12 c70 6 142 11 160 11 38 0 41 14 7 36 l-25 17 25 43 c31 52
31 54 1 54 -30 0 -140 115 -133 139 3 9 17 45 32 80 24 57 26 68 15 105 -9 35
-8 49 8 96 42 118 59 147 92 158 17 7 30 15 28 19 -72 143 -84 200 -68 322 22
170 67 273 166 381 133 143 335 246 561 285 119 21 478 13 607 -14z m-2763
-1273 c93 -33 160 -71 264 -153 194 -152 221 -191 275 -398 17 -62 34 -71 101
-51 100 30 186 4 238 -71 20 -30 21 -42 19 -186 -3 -152 -3 -155 23 -194 45
-67 159 -165 269 -230 36 -21 66 -39 68 -40 6 -4 -29 -176 -47 -228 -11 -32
-44 -99 -72 -150 -166 -294 -345 -707 -306 -707 19 0 307 298 421 435 108 130
191 249 282 403 137 231 317 424 472 505 94 50 179 70 297 71 114 1 178 -20
233 -77 54 -56 92 -175 92 -289 0 -35 -2 -38 -28 -38 -29 0 -58 25 -101 88
-20 29 -27 32 -75 32 -62 0 -99 -18 -218 -105 -108 -80 -220 -191 -297 -295
-70 -94 -158 -268 -190 -375 -41 -137 -74 -355 -54 -355 15 0 123 89 187 155
95 97 204 247 366 502 181 285 185 291 215 299 49 12 95 -5 145 -55 105 -105
97 -205 -43 -585 -20 -55 -37 -104 -37 -110 0 -16 58 44 114 119 140 185 337
544 415 755 72 196 154 371 188 406 60 61 197 88 323 64 117 -22 245 -110 270
-185 20 -61 -33 -215 -96 -278 -34 -34 -53 -32 -79 12 -31 51 -77 99 -104 106
l-24 7 7 -63 c8 -78 24 -144 91 -379 30 -102 59 -213 66 -248 6 -34 16 -65 20
-68 22 -13 204 192 371 417 97 130 206 268 243 308 175 185 357 267 540 241
218 -30 276 -95 291 -327 l7 -103 -42 0 c-31 0 -41 4 -41 16 0 48 -93 144
-140 144 -8 0 -51 -20 -95 -45 -269 -153 -503 -438 -591 -720 -44 -142 -79
-365 -56 -365 14 0 154 129 209 192 122 140 376 503 465 665 l41 76 71 -7 c79
-7 102 -19 143 -73 27 -35 28 -41 27 -142 -2 -113 -6 -129 -117 -433 -19 -54
-32 -98 -27 -98 21 0 88 89 254 340 113 171 192 280 209 289 24 13 110 12 124
-2 3 -3 2 -29 -2 -57 -7 -52 -2 -45 -420 -680 -49 -74 -112 -168 -142 -207
-49 -67 -53 -77 -53 -128 0 -54 0 -55 -29 -55 -20 0 -32 6 -35 18 -4 10 -45
40 -92 66 -127 69 -191 112 -209 140 -9 14 -19 52 -22 86 -3 33 -8 60 -11 60
-3 0 -68 -65 -144 -145 -165 -171 -179 -178 -285 -150 -91 24 -198 80 -233
123 -43 52 -59 112 -67 239 -3 62 -9 113 -13 113 -4 0 -15 -12 -25 -26 -20
-31 -17 -87 10 -212 15 -70 16 -91 6 -135 -18 -79 -70 -143 -144 -177 -253
-118 -489 -64 -702 161 -74 78 -89 99 -150 214 -70 132 -74 135 -101 83 -27
-53 -176 -290 -206 -328 -17 -22 -30 -54 -34 -83 -6 -43 -9 -47 -28 -41 -30 9
-98 45 -186 96 -41 24 -87 50 -102 57 -56 29 -71 55 -76 136 -2 41 -7 75 -11
74 -3 0 -31 -30 -61 -66 -193 -232 -262 -272 -411 -245 -168 32 -255 131 -266
305 -3 45 -9 88 -13 96 -5 9 -50 -41 -143 -155 -147 -184 -326 -373 -397 -421
-25 -16 -62 -36 -83 -42 -47 -16 -63 -6 -139 79 -29 34 -74 75 -101 92 -28 18
-50 40 -53 55 -10 36 3 106 39 228 84 276 137 405 357 859 75 156 81 171 68
194 -15 29 -42 48 -79 57 -24 6 -27 3 -43 -46 -73 -222 -382 -629 -478 -629
-11 0 -23 11 -29 27 -16 43 5 105 80 238 148 260 222 415 257 544 17 61 17 62
-4 89 -39 49 -53 83 -60 145 l-7 61 -120 -100 c-150 -125 -180 -144 -390 -244
-214 -102 -199 -94 -203 -113 -2 -10 8 -17 30 -22 106 -23 241 -135 297 -249
71 -144 81 -373 24 -537 -32 -91 -96 -208 -142 -262 -15 -18 -66 -84 -113
-147 -63 -84 -120 -146 -213 -230 -71 -63 -151 -135 -178 -160 -27 -25 -60
-61 -72 -80 -23 -36 -60 -138 -53 -145 2 -2 51 39 108 91 135 123 291 239 382
287 60 31 83 37 133 37 87 0 131 -29 177 -115 29 -56 36 -196 14 -285 -35
-139 -136 -293 -253 -382 -170 -131 -451 -248 -596 -248 -27 0 -46 -4 -43 -9
4 -5 35 -25 70 -45 125 -70 198 -155 214 -249 7 -40 9 -42 52 -48 25 -3 111
-9 192 -13 l146 -7 28 83 c72 219 335 763 387 802 41 30 155 29 220 -3 105
-51 103 -160 -6 -349 -25 -42 -57 -99 -72 -127 -16 -27 -46 -79 -68 -115 -63
-102 -173 -329 -190 -390 -18 -68 -27 -126 -20 -134 9 -9 76 24 106 52 65 61
235 298 329 457 50 84 142 255 227 420 82 158 130 214 183 216 82 3 155 -17
202 -54 23 -18 30 -33 33 -73 7 -66 -8 -114 -63 -209 -167 -285 -311 -563
-364 -700 -35 -93 -40 -155 -12 -155 42 0 184 128 276 249 103 134 241 353
395 624 l61 108 -28 42 c-63 91 -67 104 -67 222 0 124 17 190 68 266 44 67 77
84 162 84 170 -1 222 -99 160 -300 -14 -44 -28 -103 -31 -131 l-6 -51 142 -12
c155 -13 199 -26 225 -65 52 -78 20 -193 -149 -536 -126 -257 -176 -384 -176
-446 0 -29 3 -34 24 -34 54 0 112 32 179 98 108 106 176 193 330 429 253 384
382 520 583 615 62 29 78 33 159 33 63 0 104 -5 137 -18 48 -19 108 -76 108
-102 0 -10 10 -15 29 -15 24 0 31 5 36 30 8 38 65 87 110 96 102 19 195 -48
211 -151 5 -33 0 -54 -25 -106 -45 -95 -210 -403 -465 -868 -125 -227 -225
-415 -222 -418 3 -3 220 -6 483 -7 434 -1 485 1 557 18 76 17 82 21 145 86 36
38 76 71 89 75 22 6 22 8 7 28 -43 59 -65 122 -65 190 0 37 -4 67 -9 67 -5 0
-38 -35 -74 -77 -140 -169 -214 -218 -327 -217 -112 1 -188 51 -219 143 -16
48 -14 187 4 272 36 170 131 410 280 707 140 280 193 315 355 234 l75 -37 3
-55 c4 -73 -10 -119 -67 -210 -207 -328 -339 -604 -356 -744 l-8 -58 44 23
c50 25 156 128 220 215 128 173 228 343 414 704 35 69 78 139 95 157 40 41
104 51 192 29 107 -27 137 -81 107 -191 -19 -67 -56 -142 -166 -330 -138 -233
-207 -370 -237 -464 -25 -81 -42 -181 -31 -181 4 0 30 12 59 26 102 51 206
181 351 439 189 336 257 433 368 534 157 141 243 183 377 185 98 1 147 -13
198 -58 52 -46 75 -106 75 -196 -1 -237 -152 -398 -468 -498 -55 -17 -126 -36
-158 -43 -107 -20 -157 -103 -157 -258 0 -106 15 -160 49 -173 43 -17 208 -3
274 22 202 77 467 361 652 700 32 58 80 145 107 193 l49 89 -26 34 c-57 75
-75 131 -75 240 0 115 16 177 64 240 97 130 270 153 328 44 23 -44 24 -142 2
-206 -14 -41 -43 -167 -44 -187 0 -19 83 -39 198 -48 69 -5 131 -14 139 -20
22 -19 43 -64 52 -115 18 -95 -17 -188 -214 -564 -36 -69 -76 -154 -89 -190
-26 -68 -51 -178 -43 -186 2 -3 26 0 51 7 121 30 288 192 429 417 112 177 128
193 216 206 l43 7 -7 -68 c-9 -93 -25 -124 -163 -330 -142 -210 -214 -298
-297 -360 -113 -86 -211 -118 -344 -111 -110 5 -166 35 -205 111 -26 51 -29
67 -28 145 1 159 78 403 219 690 35 74 62 136 60 139 -7 6 -76 22 -98 23 -11
0 -39 -39 -79 -112 -200 -362 -491 -727 -680 -855 -257 -173 -565 -191 -735
-42 -42 37 -85 118 -85 162 0 15 -5 27 -11 27 -5 0 -54 -45 -108 -100 -74 -76
-112 -106 -157 -126 -32 -15 -60 -28 -62 -30 -2 -1 4 -16 13 -34 28 -55 -1
-125 -86 -207 -91 -87 -223 -140 -403 -163 -112 -15 -330 -9 -641 15 -278 22
-464 35 -516 35 l-47 0 -42 -72 c-237 -402 -541 -658 -858 -723 -239 -50 -445
13 -519 158 -53 104 -29 266 59 397 112 168 350 296 678 365 108 23 301 45
398 45 l82 0 24 53 c13 28 53 100 89 160 62 101 95 173 84 183 -2 3 -47 -34
-98 -81 -121 -110 -188 -145 -279 -145 -95 0 -163 36 -207 109 -18 30 -35 73
-39 97 -3 24 -8 44 -11 44 -2 0 -48 -45 -101 -99 -100 -102 -150 -135 -251
-165 -102 -30 -222 -15 -295 37 -16 11 -40 45 -54 76 -49 107 -26 303 63 531
28 71 152 336 203 432 4 8 -20 15 -78 23 l-45 6 -70 -123 c-277 -492 -567
-873 -723 -952 -146 -73 -282 -51 -360 59 -22 31 -27 50 -30 125 -3 50 -7 90
-11 90 -4 0 -24 -23 -45 -50 -60 -79 -197 -216 -236 -235 -19 -10 -65 -20
-101 -23 -166 -12 -236 69 -246 289 l-6 106 -111 6 c-61 3 -138 2 -171 -1
l-60 -7 -7 -60 c-10 -78 -48 -195 -89 -270 -45 -84 -168 -204 -250 -243 -98
-48 -179 -65 -279 -59 -99 6 -157 25 -208 67 l-37 30 -6 -27 c-15 -75 -45 -86
-153 -58 -177 46 -238 198 -187 462 22 113 53 188 162 399 43 84 79 164 79
177 0 23 -8 27 -99 52 -115 31 -217 79 -243 115 -10 14 -21 39 -24 57 l-6 32
38 -6 c22 -3 71 -23 110 -44 69 -37 233 -89 284 -89 22 0 46 31 180 232 85
127 157 235 159 240 1 5 -46 -16 -107 -46 -380 -191 -817 -326 -1053 -326
-154 0 -312 75 -455 215 -113 112 -147 173 -148 274 -1 148 77 243 444 542
235 192 311 250 470 356 58 39 110 77 116 84 6 8 14 46 17 85 3 39 22 138 43
221 l37 151 -22 42 c-20 39 -21 44 -6 66 8 13 19 24 24 24 4 0 26 26 48 58 40
59 68 119 149 327 25 66 62 150 80 187 44 88 106 244 134 337 21 73 39 221 26
221 -3 0 -63 -21 -134 -47 -217 -80 -579 -276 -762 -414 -164 -124 -320 -314
-479 -587 -54 -92 -74 -95 -143 -20 -64 70 -113 166 -133 264 -14 72 -15 87
-1 152 22 106 76 201 173 303 160 167 326 284 588 414 315 155 569 235 1040
325 l310 59 320 -2 c318 -3 320 -3 396 -29z m5817 -296 c51 -37 75 -94 76
-182 0 -130 -53 -245 -169 -364 -70 -71 -120 -100 -197 -111 l-46 -7 9 43 c6
24 24 69 41 101 l31 58 -50 58 c-28 31 -53 67 -57 78 -4 12 -7 62 -7 111 -1
98 12 142 56 183 66 62 245 80 313 32z m762 -503 c91 -21 223 -115 259 -186
22 -44 13 -101 -30 -186 -23 -45 -45 -95 -48 -112 -6 -26 -12 -30 -43 -33 -36
-3 -37 -2 -44 35 -4 21 -11 46 -16 55 -9 18 -96 74 -103 66 -6 -6 22 -183 39
-243 7 -27 36 -124 64 -215 28 -91 56 -194 63 -230 7 -36 14 -66 15 -68 5 -8
52 23 116 75 37 30 108 103 156 162 103 125 136 146 200 129 46 -11 46 -12 31
-78 -26 -113 -103 -224 -291 -417 -130 -134 -140 -152 -117 -195 37 -70 50
-233 24 -309 -92 -269 -574 -269 -843 0 -86 86 -211 298 -226 383 -8 43 8 80
60 145 19 23 34 44 34 47 0 2 -15 6 -32 8 -72 7 -59 94 38 258 118 200 184
346 289 640 47 132 66 170 106 209 72 73 161 91 299 60z"/>
<path d="M5235 8744 c-273 -49 -492 -182 -589 -358 -40 -71 -106 -263 -106
-306 0 -37 19 -47 65 -33 31 10 33 9 49 -28 11 -25 16 -57 14 -90 l-3 -51 45
-13 c25 -6 88 -30 140 -53 52 -22 116 -46 142 -51 72 -17 250 -42 255 -37 11
10 -10 26 -47 36 -34 9 -40 15 -40 37 0 25 1 26 56 19 31 -3 66 -12 77 -18 12
-6 66 -13 119 -16 l98 -5 0 -28 c0 -25 4 -29 30 -29 62 0 236 41 378 89 81 27
198 59 261 71 131 24 171 39 206 74 39 39 33 56 -20 56 -52 0 -55 9 -25 67 17
34 30 79 45 155 3 15 14 29 25 33 27 8 26 14 -15 84 -78 133 -160 205 -330
286 -196 95 -342 125 -589 124 -92 0 -195 -7 -241 -15z m129 -65 c11 -54 8
-59 -29 -59 -35 0 -35 0 -35 45 0 43 1 45 29 45 24 0 29 -5 35 -31z m246 6 c0
-20 -5 -25 -25 -25 -20 0 -25 5 -25 25 0 20 5 25 25 25 20 0 25 -5 25 -25z
m180 -80 c0 -43 -1 -45 -30 -45 -25 0 -30 4 -36 34 -8 44 0 56 37 56 28 0 29
-2 29 -45z m-580 -10 l0 -33 -37 9 c-21 5 -41 9 -45 9 -5 0 -8 12 -8 28 0 26
2 27 45 24 44 -4 45 -5 45 -37z m-260 -85 c0 -47 -2 -50 -25 -50 -19 0 -26 7
-31 28 -3 15 -8 33 -10 40 -7 22 5 32 37 32 28 0 29 -1 29 -50z m600 16 c0
-36 -11 -50 -47 -59 -22 -5 -23 -2 -23 44 l0 49 35 0 c33 0 35 -2 35 -34z
m185 22 c2 -7 6 -30 10 -50 l6 -38 -46 0 -45 0 0 50 0 50 35 0 c20 0 37 -6 40
-12z m115 -98 c0 -47 -2 -50 -25 -50 -23 0 -25 3 -25 50 0 47 2 50 25 50 23 0
25 -3 25 -50z m-500 -15 c0 -40 -2 -45 -23 -45 -32 0 -47 18 -47 57 0 31 2 33
35 33 35 0 35 0 35 -45z m-315 -25 l0 -45 -48 -3 -49 -3 7 33 c14 69 14 69 53
66 37 -3 37 -3 37 -48z m844 -46 c2 -2 6 -26 9 -54 l5 -50 -47 0 -46 0 0 48
c0 56 15 76 50 67 14 -4 27 -8 29 -11z m-1145 -34 c0 -20 -5 -25 -24 -25 -20
0 -26 6 -28 28 -3 26 -1 28 25 25 22 -2 28 -8 27 -28z m568 6 c4 -6 8 -25 8
-42 0 -33 -16 -44 -67 -44 -21 0 -23 5 -23 54 l0 55 38 -6 c20 -3 40 -11 44
-17z m422 -6 c26 -9 32 -31 20 -64 -8 -21 -67 -21 -88 0 -9 8 -16 29 -16 45 0
25 4 29 29 29 16 0 41 -4 55 -10z m-154 -47 l0 -38 -45 0 -45 0 0 38 0 37 45
0 45 0 0 -37z m576 20 c-2 -10 -7 -40 -11 -68 -6 -45 -9 -50 -32 -50 -25 0
-25 1 -19 58 7 71 10 77 42 77 19 0 24 -4 20 -17z m-242 -153 c26 -9 32 -31
20 -64 -4 -11 -19 -16 -49 -16 -45 0 -55 12 -55 68 0 18 6 22 29 22 16 0 41
-4 55 -10z m-34 -318 c0 -26 -3 -28 -42 -30 -24 -2 -78 -9 -122 -17 -43 -8
-98 -15 -122 -15 -39 0 -44 2 -44 23 0 23 5 24 153 44 83 11 158 21 165 22 7
0 12 -11 12 -27z"/>
<path d="M6450 8105 c1 -26 2 -28 11 -12 8 14 8 22 0 30 -8 8 -11 3 -11 -18z"/>
<path d="M6490 7881 l0 -41 60 0 c33 0 60 4 60 8 0 18 -57 62 -88 68 -32 6
-32 6 -32 -35z"/>
<path d="M4597 7789 c-35 -40 -36 -45 -21 -56 19 -14 104 -18 103 -5 0 4 -10
29 -22 56 l-23 49 -37 -44z"/>
<path d="M6134 7800 c-69 -8 -151 -35 -185 -61 l-24 -19 31 0 c54 0 215 38
235 56 19 17 25 35 12 33 -5 -1 -35 -5 -69 -9z"/>
<path d="M6443 7690 c0 -30 2 -43 4 -27 2 15 2 39 0 55 -2 15 -4 2 -4 -28z"/>
<path d="M5337 7724 c-18 -18 -1 -24 69 -24 56 0 75 3 72 13 -5 13 -129 23
-141 11z"/>
<path d="M5017 7684 c-14 -14 -7 -22 18 -20 14 0 23 6 22 11 -4 12 -31 18 -40
9z"/>
<path d="M6140 7682 c0 -12 24 -22 53 -22 27 0 11 16 -25 25 -17 4 -28 3 -28
-3z"/>
<path d="M6370 7675 c0 -8 -20 -26 -44 -40 -24 -14 -47 -33 -50 -41 -5 -13 -9
-13 -35 1 -28 14 -31 14 -41 -5 -10 -18 -21 -20 -120 -20 l-110 0 0 -65 0 -65
43 0 c23 0 69 -9 101 -20 41 -15 62 -18 70 -11 7 6 16 8 19 5 5 -6 13 29 19
86 2 20 18 33 80 65 86 45 128 80 128 107 0 13 -8 18 -30 18 -20 0 -30 -5 -30
-15z"/>
<path d="M5070 7657 c0 -10 9 -14 25 -13 30 1 27 20 -3 24 -14 2 -22 -2 -22
-11z"/>
<path d="M4512 7608 c10 -55 7 -162 -6 -189 -16 -35 143 -99 245 -99 48 0 74
-17 81 -55 2 -14 14 -21 39 -25 20 -4 61 -17 92 -29 55 -22 58 -23 92 -7 36
17 47 36 21 36 -26 0 -76 50 -76 76 0 23 2 24 86 24 47 0 129 -5 182 -11 94
-11 96 -11 114 11 l19 23 -58 32 c-32 17 -80 45 -106 62 -50 32 -92 42 -264
61 -76 9 -87 13 -145 56 l-63 47 -3 -46 -3 -46 -32 7 c-18 3 -53 17 -79 30
-40 21 -48 29 -48 53 0 25 -4 29 -37 35 -62 10 -61 11 -51 -46z m174 -104 c77
-38 112 -43 251 -34 59 4 93 -16 93 -57 0 -22 -3 -23 -75 -23 -68 0 -75 -2
-75 -20 0 -17 -7 -20 -39 -20 -22 0 -41 4 -43 10 -1 5 -40 25 -85 44 -91 38
-143 71 -143 91 0 7 -3 20 -6 29 -11 28 41 19 122 -20z"/>
<path d="M6430 7597 c0 -23 -4 -27 -30 -27 -25 0 -30 -4 -30 -25 0 -21 5 -25
29 -25 28 0 30 3 37 45 3 25 4 49 0 52 -3 4 -6 -6 -6 -20z"/>
<path d="M5210 7590 c-19 -12 -10 -20 35 -27 36 -6 37 -5 26 16 -12 22 -36 27
-61 11z"/>
<path d="M5665 7555 c-27 -8 -75 -14 -105 -15 -30 0 -75 -5 -99 -11 -45 -10
-101 -43 -101 -60 0 -10 60 -50 133 -87 44 -23 49 -24 64 -10 16 16 14 25 -12
91 -10 24 29 23 75 -2 l34 -18 67 56 c37 31 68 59 68 64 1 11 -69 7 -124 -8z"/>
<path d="M5855 7491 c7 -24 -53 -64 -96 -64 -16 0 -29 -1 -29 -2 0 -1 5 -15
10 -31 9 -26 20 -32 88 -52 43 -12 84 -22 90 -22 18 0 15 67 -3 74 -16 6 -20
53 -6 75 15 23 1 41 -31 41 -24 0 -28 -3 -23 -19z"/>
<path d="M6423 7451 c-34 -39 -51 -51 -83 -56 -22 -4 -76 -24 -119 -46 -44
-21 -84 -39 -89 -39 -5 0 -12 9 -15 21 -5 18 -10 20 -39 14 -49 -10 -75 -31
-83 -65 -5 -25 -11 -30 -36 -30 -32 0 -34 -3 -18 -31 8 -16 17 -19 42 -14 59
12 65 15 77 45 11 27 17 30 54 29 22 0 64 -6 91 -13 39 -9 62 -9 105 1 34 8
56 9 58 3 6 -17 62 -12 62 5 0 10 -11 15 -35 15 -37 0 -75 28 -75 56 0 16 19
15 62 -1 11 -5 14 1 10 26 l-5 32 37 -7 c21 -4 44 -10 52 -13 10 -4 14 3 14
25 0 39 -11 92 -19 92 -3 0 -25 -22 -48 -49z"/>
<path d="M5605 7304 c-11 -3 -63 -19 -115 -36 -85 -27 -105 -29 -197 -26
l-103 4 0 -27 c0 -19 -13 -39 -45 -68 -25 -23 -45 -44 -45 -46 0 -3 9 -5 21
-5 11 0 50 -12 87 -27 63 -25 66 -25 77 -7 17 30 62 74 77 74 7 0 40 -26 74
-58 l60 -58 30 19 c119 75 294 144 329 131 16 -6 27 44 11 53 -95 60 -204 91
-261 77z"/>
<path d="M4705 7221 c-8 -17 -15 -35 -15 -40 0 -6 33 -50 73 -98 196 -237 265
-272 570 -294 174 -12 277 -3 472 41 173 39 316 83 395 123 73 37 88 57 40 57
-28 0 -31 3 -28 27 2 22 13 31 65 52 59 24 159 88 152 96 -2 2 -45 -1 -96 -7
-89 -9 -135 -3 -210 28 -9 4 -13 -4 -13 -25 l0 -31 -70 0 c-64 0 -70 -2 -70
-21 0 -11 -5 -29 -11 -40 -9 -17 -17 -19 -61 -13 -34 5 -49 4 -45 -3 4 -6 -3
-22 -14 -37 -19 -24 -27 -26 -92 -26 -40 0 -123 -9 -186 -20 -138 -24 -149
-24 -173 -3 -17 15 -23 15 -51 3 -18 -7 -50 -13 -73 -12 -42 1 -230 57 -251
74 -7 6 -13 26 -13 44 0 33 -1 34 -38 34 -50 0 -136 26 -152 45 -7 9 -30 29
-51 46 l-38 30 -16 -30z"/>
<path d="M2590 7340 c-102 -14 -317 -60 -410 -87 -47 -14 -114 -30 -150 -37
l-64 -12 54 -38 c30 -20 78 -50 106 -66 43 -24 62 -45 109 -120 l58 -92 -18
-36 c-31 -64 -225 -556 -220 -560 13 -14 442 184 627 289 302 171 487 329 590
502 l37 62 -52 47 c-117 106 -244 148 -462 153 -77 2 -169 0 -205 -5z"/>
<path d="M2347 6034 c-181 -33 -391 -108 -461 -166 -24 -20 -52 -60 -77 -111
-21 -44 -38 -82 -36 -84 2 -1 107 29 233 68 126 39 261 80 299 90 152 40 350
59 446 43 41 -7 56 -29 66 -99 l5 -42 -93 -23 c-237 -58 -663 -219 -902 -342
-117 -60 -156 -104 -188 -212 -12 -39 -31 -98 -43 -131 l-22 -60 -57 1 c-68 2
-102 21 -126 74 l-17 39 -65 -49 c-86 -65 -382 -367 -450 -460 -76 -104 -179
-280 -179 -307 0 -12 183 2 280 22 98 20 231 61 379 117 201 76 621 282 691
339 l25 20 -50 -6 c-64 -8 -436 -116 -666 -194 -206 -69 -261 -79 -311 -58
-27 12 -39 25 -53 60 -30 80 -25 86 100 124 417 126 507 144 880 168 270 18
300 25 384 93 89 71 358 341 406 408 91 125 130 235 141 391 8 115 -5 165 -60
219 -60 60 -143 84 -290 83 -61 0 -146 -7 -189 -15z"/>
<path d="M6191 5988 c-19 -35 -94 -151 -168 -259 l-133 -197 118 -6 c64 -4
168 -14 230 -22 127 -16 172 -18 172 -6 0 4 -14 41 -31 82 -47 116 -117 334
-131 406 -6 35 -14 64 -17 64 -4 0 -22 -28 -40 -62z"/>
<path d="M6136 5285 c10 -25 126 -116 174 -137 50 -22 170 -22 191 -1 12 12 5
98 -10 121 -10 16 -133 31 -258 32 -87 0 -102 -2 -97 -15z"/>
<path d="M2976 4655 c-87 -35 -139 -75 -356 -268 -203 -181 -441 -419 -499
-502 l-34 -47 44 7 c82 14 213 56 325 104 266 115 537 356 598 531 9 25 16 66
16 91 0 46 -16 109 -28 109 -4 0 -34 -11 -66 -25z"/>
<path d="M8832 4088 c-80 -41 -185 -143 -282 -273 -47 -63 -50 -70 -31 -73 63
-10 198 61 308 161 76 70 113 123 113 162 0 51 -38 59 -108 23z"/>
<path d="M6252 4072 c-162 -84 -370 -337 -511 -619 -49 -100 -74 -169 -86
-235 -7 -43 -8 -43 36 -24 142 60 442 353 636 621 70 96 79 134 53 219 -19 60
-23 66 -48 66 -15 0 -51 -13 -80 -28z"/>
<path d="M1983 3708 c-14 -17 -163 -260 -223 -363 -135 -234 -182 -445 -123
-559 l20 -38 32 51 c29 44 34 63 41 145 6 75 14 105 36 146 52 96 159 174 315
228 85 30 231 62 282 62 24 0 27 4 27 34 0 107 -83 201 -235 265 -87 36 -157
48 -172 29z"/>
<path d="M2300 3280 c-78 -10 -166 -38 -280 -91 -133 -62 -180 -119 -180 -216
0 -82 6 -91 69 -110 67 -19 151 -9 227 29 66 32 164 126 198 188 46 85 73 212
44 209 -7 -1 -42 -5 -78 -9z"/>
<path d="M7460 2963 c0 -9 20 -74 25 -80 2 -3 144 52 150 59 3 3 -27 8 -67 11
-40 3 -81 8 -90 12 -10 4 -18 3 -18 -2z"/>
<path d="M5478 2600 c-102 -15 -217 -38 -255 -50 -188 -60 -361 -192 -453
-345 -18 -29 -24 -54 -25 -97 0 -49 4 -61 27 -85 23 -22 38 -28 92 -31 84 -5
152 10 243 56 163 81 356 259 507 466 42 57 76 107 76 110 0 8 6 8 -212 -24z"/>
<path d="M9238 5998 c-20 -29 -87 -126 -148 -216 -62 -90 -110 -165 -108 -166
1 -1 30 -8 63 -14 33 -6 103 -23 155 -37 52 -14 128 -28 169 -32 l73 -6 -7 24
c-4 13 -32 92 -62 174 -30 83 -65 190 -77 238 l-22 88 -36 -53z"/>
<path d="M9180 5332 c0 -5 13 -27 29 -49 74 -102 200 -153 296 -121 48 16 69
52 59 103 -3 19 -12 35 -18 35 -7 0 -63 6 -126 14 -200 25 -240 28 -240 18z"/>
</g>
</svg>
